HIERARCHY
ROOT Hips
{
	OFFSET 0.0000 0.0000 0.0000
	CHANNELS 6 Xposition Yposition Zposition Zrotation Xrotation Yrotation
	JOINT Ab
	{
		OFFSET -0.0000 8.0846 -0.0000
		CHANNELS 3 Zrotation Xrotation Yrotation
		JOINT Chest
		{
			OFFSET -0.0000 25.0068 -0.0000
			CHANNELS 3 Zrotation Xrotation Yrotation
			JOINT Neck
			{
				OFFSET -0.0000 25.0068 0.0000
				CHANNELS 3 Zrotation Xrotation Yrotation
				JOINT Head
				{
					OFFSET -0.0000 10.7556 0.0000
					CHANNELS 3 Zrotation Xrotation Yrotation
					End Site
					{
						OFFSET -0.0000 16.6222 0.0000
					}
				}
			}
			JOINT LeftCollar
			{
				OFFSET -0.0000 25.0068 0.0000
				CHANNELS 3 Zrotation Xrotation Yrotation
				JOINT LeftShoulder
				{
					OFFSET 19.5556 -0.0000 0.0000
					CHANNELS 3 Zrotation Xrotation Yrotation
					JOINT LeftElbow
					{
						OFFSET 27.1828 0.0000 0.0000
						CHANNELS 3 Zrotation Xrotation Yrotation
						JOINT LeftWrist
						{
							OFFSET 23.3157 0.0000 0.0000
							CHANNELS 3 Zrotation Xrotation Yrotation
							End Site
							{
								OFFSET 0.0000 -14.6667 0.0000
							}
						}
					}
				}
			}
			JOINT RightCollar
			{
				OFFSET -0.0000 25.0068 0.0000
				CHANNELS 3 Zrotation Xrotation Yrotation
				JOINT RightShoulder
				{
					OFFSET -19.5556 0.0000 0.0000
					CHANNELS 3 Zrotation Xrotation Yrotation
					JOINT RightElbow
					{
						OFFSET -27.1828 0.0000 0.0000
						CHANNELS 3 Zrotation Xrotation Yrotation
						JOINT RightWrist
						{
							OFFSET -23.3157 0.0000 0.0000
							CHANNELS 3 Zrotation Xrotation Yrotation
							End Site
							{
								OFFSET -0.0000 -14.6667 0.0000
							}
						}
					}
				}
			}
		}
	}
	JOINT LeftHip
	{
		OFFSET 11.7333 0.0000 0.0000
		CHANNELS 3 Zrotation Xrotation Yrotation
		JOINT LeftKnee
		{
			OFFSET -0.0000 -40.8688 0.0000
			CHANNELS 3 Zrotation Xrotation Yrotation
			JOINT LeftAnkle
			{
				OFFSET -0.0000 -44.4337 0.0000
				CHANNELS 3 Zrotation Xrotation Yrotation
				End Site
				{
					OFFSET -0.0000 -4.8889 16.6222
				}
			}
		}
	}
	JOINT RightHip
	{
		OFFSET -11.7333 0.0000 0.0000
		CHANNELS 3 Zrotation Xrotation Yrotation
		JOINT RightKnee
		{
			OFFSET -0.0000 -40.8688 0.0000
			CHANNELS 3 Zrotation Xrotation Yrotation
			JOINT RightAnkle
			{
				OFFSET -0.0000 -44.4337 0.0000
				CHANNELS 3 Zrotation Xrotation Yrotation
				End Site
				{
					OFFSET -0.0000 -4.8889 16.6222
				}
			}
		}
	}
}
MOTION
Frames: 24
Frame Time: 0.010000
-3.7297 88.7828 190.4700 2.4581 359.1558 175.0478 2.6431 358.6614 358.5373 358.6346 12.7176 358.6588 1.5175 339.0229 0.6846 3.8461 3.2932 0.2940 338.7337 358.4284 8.3144 301.4438 32.7630 354.2274 18.4086 353.8334 323.2124 81.6343 1.0838 344.1899 22.4181 359.3351 356.6102 58.8959 42.9077 10.1470 337.1649 354.0004 29.0900 278.9532 353.0051 20.0665 1.7941 357.8445 357.6972 358.9596 10.3009 359.7191 2.2257 352.4127 23.2161 1.8781 351.9668 359.6245 359.3215 17.5709 9.2011 355.1651 346.1504 338.1036 
-3.7299 88.7846 190.4765 2.4541 359.1301 175.0263 2.6342 358.6657 358.5317 358.6403 12.7186 358.6520 1.5599 339.0464 0.7137 3.7258 3.3515 0.3173 338.7302 358.4222 8.3559 301.3884 32.9812 354.2666 18.4945 353.7999 323.2177 81.5690 1.0715 344.3231 22.4150 359.3214 356.6014 58.9139 42.8724 10.1145 337.1861 353.9894 29.1207 278.9410 352.9534 20.1416 1.7941 357.8063 357.7027 358.9534 10.3260 359.7343 2.1797 352.3895 23.2102 1.8826 351.9228 359.6407 359.3127 17.6010 9.2159 355.1603 346.1146 338.0894 
-3.7308 88.7854 190.4727 2.4491 359.1343 175.0055 2.6265 358.6947 358.5220 358.6478 12.7237 358.6435 1.5728 339.0652 0.7443 3.6642 3.3977 0.3592 338.7123 358.4341 8.3806 301.3474 33.0419 354.3112 18.4584 353.8197 323.1612 81.5289 1.0892 344.3843 22.4141 359.3030 356.5645 58.8801 42.8817 10.1292 337.2071 353.9884 29.1546 279.0040 353.0922 20.1336 1.7897 357.8334 357.7060 358.9469 10.2940 359.7500 2.1997 352.3995 23.2156 1.8777 351.9231 359.6754 359.3216 17.6040 9.2262 355.1505 346.0968 338.0551 
-3.7315 88.7865 190.4694 2.4483 359.1383 174.9893 2.6247 358.7213 358.5117 358.6500 12.7325 358.6347 1.6031 339.0928 0.8075 3.5839 3.4359 0.3801 338.7027 358.4303 8.4014 301.2952 33.1087 354.3550 18.4490 353.8090 323.1164 81.4775 1.0467 344.4163 22.4156 359.3078 356.5344 58.8461 42.8622 10.1517 337.2724 354.0141 29.1657 278.9776 353.1403 20.1715 1.7873 357.8522 357.7116 358.9537 10.2770 359.7230 2.2498 352.4059 23.2497 1.8800 351.9135 359.6913 359.3150 17.6398 9.2492 355.2052 346.0547 338.0519 
-3.7308 88.7872 190.4656 2.4480 359.1437 174.9779 2.6192 358.7533 358.5012 358.6580 12.7323 358.6235 1.6314 339.1120 0.8512 3.4960 3.4921 0.4262 338.6909 358.4087 8.4363 301.2492 33.2496 354.4045 18.4974 353.7794 323.0925 81.3249 0.9917 344.4320 22.4110 359.3040 356.5228 58.8510 42.8567 10.1357 337.2647 354.0133 29.1737 278.9451 353.1431 20.2062 1.7863 357.8642 357.7205 358.9561 10.2745 359.7197 2.2445 352.3968 23.2507 1.8828 351.9095 359.7095 359.3131 17.6647 9.2346 355.1942 346.0195 338.0601 
-3.7313 88.7875 190.4584 2.4462 359.1508 174.9695 2.6140 358.7797 358.4895 358.6772 12.7517 358.6102 1.6371 339.1019 0.8791 3.4128 3.5561 0.4817 338.6745 358.3919 8.4581 301.2129 33.3804 354.4718 18.4824 353.7944 323.0406 81.3273 0.9491 344.4709 22.3889 359.3032 356.4944 58.8275 42.8525 10.1600 337.2751 354.0058 29.1841 278.9240 353.1530 20.2422 1.7819 357.8751 357.7063 358.9510 10.2787 359.7516 2.2422 352.3892 23.2442 1.8812 351.9149 359.7320 359.3166 17.6755 9.2108 355.1983 345.9712 338.0692 
-3.7316 88.7881 190.4519 2.4406 359.1461 174.9632 2.6147 358.7949 358.4745 358.6786 12.7633 358.5959 1.6685 339.1177 0.9268 3.3265 3.5846 0.5288 338.6591 358.4007 8.4529 301.1734 33.3906 354.5593 18.3722 353.8361 322.9353 81.3948 0.9813 344.4241 22.3825 359.3124 356.4739 58.7939 42.8330 10.1781 337.3233 354.0193 29.1938 278.9188 353.1742 20.2826 1.7769 357.8709 357.6937 358.9457 10.2879 359.7441 2.2584 352.3804 23.2732 1.8760 351.9027 359.7488 359.3196 17.6984 9.2360 355.3077 345.8756 338.0138 
-3.7310 88.7893 190.4457 2.4331 359.1409 174.9626 2.6063 358.8145 358.4638 358.6838 12.7636 358.5841 1.7072 339.1440 0.9757 3.2225 3.5977 0.5656 338.6512 358.3957 8.4788 301.1173 33.4621 354.6024 18.3427 353.8200 322.8879 81.3704 1.0060 344.3889 22.3774 359.3001 356.4650 58.7897 42.8386 10.1585 337.2382 353.9886 29.2153 279.0835 353.2204 20.0555 1.7728 357.8659 357.6899 358.9412 10.2955 359.7254 2.2700 352.3690 23.2989 1.8705 351.8863 359.7412 359.3140 17.7313 9.2621 355.2549 345.8698 338.0048 
-3.7291 88.7901 190.4358 2.4317 359.1453 174.9629 2.6096 358.8465 358.4549 358.6744 12.7568 358.5791 1.7506 339.2016 1.0272 3.1523 3.5627 0.6038 338.6540 358.4066 8.4737 301.0414 33.3827 354.6691 18.2058 353.8677 322.8149 81.4631 1.0095 344.3368 22.3805 359.3104 356.4503 58.7840 42.8057 10.1399 337.0348 353.9202 29.2507 279.5450 353.3592 19.1375 1.7730 357.8720 357.6813 358.9374 10.3031 359.7487 2.2559 352.3511 23.2779 1.8735 351.8839 359.7695 359.3148 17.7604 9.2630 355.3540 345.7708 337.9292 
-3.7283 88.7912 190.4276 2.4282 359.1444 174.9775 2.6100 358.8779 358.4425 358.6664 12.7409 358.5668 1.7736 339.2383 1.0601 3.0975 3.5537 0.6357 338.6561 358.3895 8.4920 300.9891 33.4856 354.7235 18.2152 353.8314 322.7849 81.3690 0.9975 344.3246 22.3854 359.2884 356.4186 58.7612 42.8381 10.1311 336.9798 353.9041 29.2458 279.5616 353.3052 19.0392 1.7688 357.8571 357.6708 358.9286 10.3312 359.7897 2.1813 352.3312 23.2372 1.8682 351.8811 359.7743 359.3209 17.7796 9.2368 355.3441 345.7326 337.9316 
-3.7246 88.7909 190.4112 2.4250 359.1578 174.9781 2.5938 358.9080 358.4464 358.6731 12.7532 358.5698 1.7948 339.2482 1.0897 3.0476 3.5656 0.6652 338.6428 358.3756 8.5662 300.9882 33.7066 354.6928 18.2653 353.8103 322.8459 81.4009 0.9531 344.4102 22.3765 359.3002 356.4075 58.7679 42.8086 10.1085 337.0364 353.9138 29.2455 279.5276 353.2544 19.0604 1.7675 357.8764 357.6706 358.9246 10.3404 359.7773 2.1345 352.2964 23.2427 1.8665 351.8982 359.8079 359.3271 17.7975 9.2268 355.3356 345.6980 337.9128 
-3.7212 88.7901 190.3957 2.4229 359.1644 174.9850 2.5859 358.9343 358.4463 358.6660 12.7512 358.5718 1.8356 339.2929 1.1186 2.9866 3.5414 0.6903 338.6390 358.3526 8.6101 300.9681 33.9244 354.7113 18.3487 353.7815 322.9096 81.4560 0.9125 344.5641 22.3785 359.2803 356.3917 58.7811 42.7933 10.0611 337.0216 353.9221 29.2762 279.5686 353.1578 19.0645 1.7725 357.8936 357.6446 358.9099 10.3413 359.7404 2.2002 352.3009 23.3041 1.8695 351.9062 359.8317 359.3252 17.8221 9.2398 355.4572 345.5803 337.8834 
-3.7187 88.7899 190.3828 2.4172 359.1544 175.0143 2.5790 358.9417 358.4387 358.6596 12.7589 358.5665 1.8636 339.3073 1.1309 2.9316 3.5371 0.6980 338.6300 358.3690 8.6154 300.9441 33.9778 354.7319 18.2877 353.8186 322.9827 81.7826 0.8123 344.6917 22.3802 359.2692 356.3716 58.7907 42.7459 10.0083 337.0579 353.9231 29.3420 279.5252 353.1254 19.0826 1.7673 357.8706 357.6234 358.9109 10.3728 359.7340 2.2794 352.3050 23.3172 1.8635 351.9020 359.8439 359.3331 17.8367 9.2425 355.4871 345.5304 337.8487 
-3.7152 88.7895 190.3698 2.4141 359.1457 175.0362 2.5615 358.9580 358.4494 358.6660 12.7618 358.5774 1.8610 339.3003 1.1238 2.9087 3.5646 0.6896 338.6206 358.3933 8.5865 300.8863 33.8437 354.7780 18.1796 353.8715 322.9996 82.1264 0.7279 344.6947 22.3701 359.2794 356.3546 58.8074 42.7077 9.9755 337.0939 353.9175 29.3856 279.5077 353.1293 19.1042 1.7666 357.8558 357.6240 358.9101 10.3938 359.7396 2.2416 352.2874 23.2914 1.8620 351.8936 359.8573 359.3365 17.8597 9.2267 355.3989 345.5622 337.8283 
-3.7119 88.7883 190.3525 2.4085 359.1415 175.0558 2.5424 358.9728 358.4636 358.6680 12.7666 358.5915 1.8705 339.3038 1.1145 2.8778 3.5810 0.6782 338.6164 358.4036 8.5607 300.8242 33.7512 354.8179 18.1797 353.8679 323.0264 82.3077 0.6558 344.6993 22.3651 359.2859 356.3256 58.8027 42.6917 9.9669 337.0842 353.9114 29.3821 279.5168 353.0167 19.0082 1.7631 357.8519 357.6281 358.9078 10.4074 359.7410 2.1780 352.2582 23.2623 1.8570 351.8958 359.8661 359.3409 17.8755 9.1943 355.3758 345.5514 337.8324 
-3.7092 88.7867 190.3325 2.4014 359.1407 175.0849 2.5265 358.9775 358.4677 358.6672 12.7892 358.5958 1.9002 339.3136 1.1153 2.8339 3.5757 0.6752 338.6192 358.3995 8.5448 300.7541 33.6860 354.8467 18.2432 353.8474 323.0784 82.3687 0.5858 344.7089 22.3647 359.2701 356.2873 58.7770 42.7073 9.9733 337.0740 353.9111 29.4549 279.4905 353.1127 19.0642 1.7567 357.8504 357.6123 358.9049 10.4242 359.7221 2.1933 352.2360 23.2704 1.8467 351.9111 359.8684 359.3511 17.8746 9.1470 355.4840 345.4592 337.8586 
-3.7051 88.7860 190.3126 2.3988 359.1355 175.1211 2.5118 358.9797 358.4705 358.6745 12.8133 358.5985 1.8880 339.3029 1.1065 2.8411 3.5926 0.6672 338.6290 358.4018 8.4973 300.6381 33.4427 354.9184 18.2274 353.8679 323.0922 82.4447 0.5346 344.6005 22.3600 359.2623 356.2611 58.7622 42.6938 9.9672 337.1217 353.9057 29.4831 279.4317 353.1229 19.1011 1.7610 357.8456 357.5771 358.8915 10.4394 359.6908 2.2117 352.2249 23.3089 1.8424 351.9167 359.8823 359.3636 17.8872 9.0962 355.4780 345.4360 337.8608 
-3.7019 88.7856 190.2853 2.3932 359.1397 175.1514 2.5252 358.9991 358.4677 358.6356 12.8061 358.5990 1.9331 339.3497 1.1339 2.8092 3.5437 0.6907 338.6387 358.4193 8.4960 300.5693 33.2993 354.9459 18.2438 353.8812 323.1643 82.4426 0.4555 344.5319 22.3710 359.2520 356.2491 58.7622 42.6927 9.9312 337.1462 353.8920 29.5197 279.4196 353.1209 19.1428 1.7569 357.8566 357.5698 358.8900 10.4474 359.6961 2.2235 352.2063 23.2866 1.8347 351.9458 359.8916 359.3719 17.8805 9.0625 355.4570 345.4228 337.8506 
-3.6975 88.7853 190.2632 2.3849 359.1325 175.1941 2.5316 359.0182 358.4569 358.6061 12.7838 358.5920 1.9766 339.3921 1.1637 2.7622 3.5198 0.7165 338.6482 358.3940 8.5280 300.5059 33.1975 354.9377 18.3206 353.8514 323.2338 82.4113 0.3768 344.4480 22.3851 359.2713 356.2471 58.7364 42.6618 9.9187 337.2149 353.9147 29.5364 279.3889 353.1113 19.1673 1.7515 357.8518 357.5624 358.8902 10.4565 359.6824 2.1983 352.1735 23.2628 1.8204 351.9642 359.9284 359.4020 17.8735 8.9884 355.4437 345.4098 337.8418 
-3.6922 88.7869 190.2426 2.3819 359.1110 175.2413 2.5366 359.0326 358.4507 358.5797 12.7442 358.5901 2.1403 339.3682 1.2422 2.5314 3.6489 0.7701 338.6631 358.3864 8.4998 300.4282 32.9146 355.0222 18.2325 353.8894 323.2226 82.4130 0.3714 344.2827 22.3946 359.2698 356.2494 58.7408 42.6843 9.8899 337.1753 353.9200 29.5578 279.4048 353.1031 19.1641 1.7574 357.8207 357.5451 358.8839 10.4885 359.6359 2.2179 352.1539 23.2806 1.8168 351.9619 359.9329 359.4145 17.8744 8.9284 355.3222 345.4768 337.8352 
-3.6889 88.7867 190.2179 2.3759 359.0952 175.2837 2.5312 359.0316 358.4554 358.5682 12.7422 358.5945 2.1972 339.3750 1.2606 2.4294 3.6840 0.7786 338.6719 358.4115 8.4699 300.3847 32.5947 355.0528 18.0942 353.9566 323.2261 82.3881 0.3106 344.0855 22.3930 359.2479 356.2466 58.7296 42.7227 9.8764 337.1627 353.9056 29.5716 279.3481 353.0759 19.1836 1.7579 357.8062 357.5339 358.8775 10.5050 359.6033 2.2133 352.1345 23.2845 1.8082 351.9677 359.9064 359.4142 17.8705 8.9260 355.4118 345.3959 337.8343 
-3.6851 88.7867 190.1903 2.3704 359.0816 175.3321 2.5229 359.0335 358.4604 358.5600 12.7328 358.6007 2.2067 339.3918 1.2469 2.3889 3.7070 0.7635 338.6860 358.4337 8.4078 300.3277 32.2444 355.1131 17.9542 354.0104 323.1578 82.3606 0.3306 343.8914 22.3902 359.2481 356.2457 58.7457 42.7391 9.8516 337.1701 353.9008 29.5814 279.2361 353.0885 19.2472 1.7544 357.7936 357.5235 358.8786 10.5201 359.5897 2.2055 352.1111 23.2620 1.7973 351.9810 359.9130 359.4302 17.8685 8.8908 355.4499 345.3480 337.7811 
-3.6829 88.7870 190.1625 2.3648 359.0664 175.3824 2.5125 359.0360 358.4669 358.5565 12.7255 358.6081 2.1941 339.3833 1.2256 2.3798 3.7644 0.7429 338.7015 358.4420 8.3335 300.2753 31.9015 355.1836 17.8066 354.0555 323.0524 82.3725 0.3715 343.6825 22.3822 359.2581 356.2465 58.7603 42.7411 9.8398 337.1817 353.8869 29.5943 279.1747 353.1177 19.3222 1.7506 357.7771 357.5112 358.8779 10.5410 359.5769 2.2070 352.0877 23.2440 1.7860 351.9917 359.9129 359.4397 17.8734 8.8864 355.2928 345.4240 337.7736 
-3.6816 88.7868 190.1342 2.3571 359.0457 175.4306 2.5035 359.0371 358.4733 358.5479 12.7155 358.6151 2.1631 339.3553 1.1949 2.3908 3.8446 0.7148 338.7212 358.4471 8.2792 300.2431 31.6058 355.2388 17.6324 354.1089 322.9632 82.4337 0.3918 343.4646 22.3775 359.2583 356.2458 58.7454 42.7551 9.8478 337.1772 353.8785 29.6169 279.1802 353.1003 19.3688 1.7408 357.7524 357.5207 358.8879 10.5713 359.5326 2.2143 352.0588 23.2379 1.7738 351.9988 359.9028 359.4445 17.8691 8.8689 355.2940 345.3983 337.7711 
